<svg xmlns="http://www.w3.org/2000/svg" width="721.012" height="433.818" viewBox="0 0 721.01221 433.81775">
 <path d="M711.086 86.439S560.85-5.415 446.226 87.888l-140.078 285.74s153.525-50.004 246.33 39.366L711.086 86.439z" fill="#eacd98"/>
 <path d="M380.065 323.474c5.24-20.061 3.06-41.491 10.665-61.01.188-.478-1.7-.254-1.916.299-7.606 19.518-5.426 40.948-10.665 61.01-.144.549 1.771.256 1.916-.3zM300.654 368.333s-73.4-96.63-247.999-36.647L217.927 62.44s197.246-56.713 221.24 23.265L300.654 368.333z" fill="#eacd98"/>
 <path d="M309.4 381.839s149.077-53.318 248.621 51.979c0-.001-169.929-37.761-248.62-51.98zM287.88 376.95L52.654 339.62S212 290.75 287.88 376.95zM721.012 108.159L562.906 432.927l-4.679-8.736L717.383 92.51z" fill="#4f3307"/>
 <path d="M619.101 184.046c-.429 0-.865-.11-1.266-.336-.752-.43-76.3-42.51-169.822-15.472a2.566 2.566 0 1 1-1.426-4.93c95.681-27.65 173.017 15.505 173.788 15.946a2.565 2.565 0 1 1-1.274 4.792zM595.166 219.948a2.55 2.55 0 0 1-1.266-.337c-.754-.431-76.3-42.508-169.822-15.472a2.57 2.57 0 0 1-3.178-1.75 2.568 2.568 0 0 1 1.752-3.178c95.685-27.653 173.016 15.504 173.787 15.944a2.563 2.563 0 0 1 .957 3.496 2.561 2.561 0 0 1-2.23 1.297zM574.651 254.14c-.429 0-.864-.107-1.265-.336-.753-.43-76.299-42.51-169.823-15.472a2.567 2.567 0 0 1-1.426-4.93c95.681-27.65 173.017 15.505 173.788 15.944a2.563 2.563 0 0 1 .956 3.496 2.56 2.56 0 0 1-2.23 1.298zM557.555 290.043c-.429 0-.866-.108-1.266-.336-.753-.43-76.302-42.507-169.823-15.472a2.567 2.567 0 0 1-1.426-4.93c95.681-27.653 173.017 15.502 173.788 15.944a2.563 2.563 0 0 1 .957 3.496 2.558 2.558 0 0 1-2.23 1.298zM641.326 148.143c-.43 0-.866-.108-1.267-.335-.754-.43-76.302-42.51-169.822-15.472a2.57 2.57 0 0 1-3.178-1.751 2.57 2.57 0 0 1 1.752-3.177c95.677-27.654 173.016 15.503 173.788 15.944a2.562 2.562 0 0 1 .956 3.496 2.559 2.559 0 0 1-2.229 1.295z" fill="#fff"/>
 <g fill="#9b0b0b">
  <path d="M15.244 31.235c38 10.273 74.298 28.473 108.577 48.549 11.103 6.583 28.122 17.62 38.845 24.8-37.486-11.98-79.664-9.776-102.094-3.012l-.315-.095c-2.459-.664-11.43-1.787-11.43-1.787s8.084-.807 8.188-1.273c.783-3.508-9.64-4.921-12.469-7.13-2.095-1.63-11.3-7.478-11.3-7.478s4.69-2.233 4.387-2.836c-1.385-2.79-8.268-4.368-10.874-6.065-4.588-2.997-13.138-9.96-16.885-13.956-2.792-2.977-8.573-9.265-9.567-13.225-1.277-5.1 1.774-15.681 2.812-20.832.476-2.371 1.211-7.3 2.523-9.332 2.76-4.28 11.192-10.614 15.707-12.964C25.164 2.609 33.63.073 37.93.003 46.613-.14 63.52 5.27 71.7 8.19c7.647 2.738 30.34 11.643 30.34 11.643l14.981 38.98-11.162-35.758s11.036 4.545 14.533 6.43c.917.496 2.031 1.238 3.24 2.074 4.69 19.135 18.822 44.872 34.735 64.975-9.027-5.583-23.65-14.36-32.917-19.528-34.979-19.25-71.908-36.534-110.206-45.772z"/>
  <path d="M158.533 96.674c-15.685-19.988-24.253-42.151-28.909-61.14 3.11 2.16 6.811 4.975 9.29 6.004 3.066 1.287 10.092 1.25 12.987 2.892 3.157 1.787 6.728 8.922 9.99 10.522 2.471 1.21 8.48-.105 10.968 1.084 4.184 2 9.415 10.296 13.015 13.222 6.828 5.53 22.642 13.6 29.611 18.953 4.177 3.208 15.557 14.219 15.557 14.219l11.13 46.815-3.797-39.201s15.223 14.143 20.23 18.924a939.506 939.506 0 0 1 6.257 6.072c3.551 19.15 11.011 43.345 26.567 65.598-21.16-19.834-43.112-38.778-65.922-56.66-21.555-16.85-43.877-32.726-66.974-47.304zM290.407 211.973c-6.878-1.655-39.252-.594-45.88-1.218 4.125-.892 32.378-3.615 32.378-3.615s-52.408-1.987-69.846-3.235c-2.198-.153-6.633-.64-8.695-1.408-4.209-1.57-11.413-7.164-15.279-9.45-3.909-2.302-12.155-6.12-16.342-7.856-4.69-1.947-20.822-6.782-20.822-6.782l30.795-12.743s-26.02-2.48-34.35-4.9c-2.28-.662-6.674-2.59-8.65-3.903-3.626-2.417-9.69-8.777-12.744-11.894-2.523-2.571-6.488-8.95-9.617-10.734-1.97-1.127-6.952-1.858-9.04-2.751-3.687-1.574-9.88-5.733-13.026-8.223-1.858-1.462-5.063-5.025-7.063-6.291-2.384-1.503-10.397-4.374-10.397-4.374l6.365-2.568s-8.49-3.544-11.624-4.48c22.38-6.747 58.355-13.066 95.761-1.176 20.375 13.936 40.07 28.876 59.104 44.6 24.01 19.87 46.975 40.947 68.972 63z"/>
  <path d="M338.422 274.926s-7.823.413-8.275.322c-2.888-.577-2.312-2.51-5.212-2.98-9.642-1.565-29.372-3.664-38.333-7.54-3.55-1.544-18.782-8.82-18.782-8.82l10.116-1.972s-9.799-1.914-12.98-2.888c-3.929-1.198-11.386-4.717-15.282-6.005-5.159-1.706-24.265-4.818-24.265-4.818s15.961-5.454 20.376-6.246c6.012-1.08 18.417-.073 24.422-1.223 4.385-.846 12.512-4.904 16.891-5.762 2.578-.504 9.476-1.518 9.476-1.518s-25.526 1.132-34.324 2c-9.753.955-28.425 5.898-38.215 5.497-4.458-.18-17.739-3.41-17.739-3.41s21.108-6.48 28.221-8.331c8.667-2.252 29.902-8.67 41.182-9.346 5.675-.343 9.171-1.17 15.02.103 17.82 17.983 37.27 39.185 53.851 58.335l-6.148 4.602zM295.171 204.187c-19.173-24.082-20.788-44.673-24.714-65.87a4307.11 4307.11 0 0 1 10.578 10.372s1.762 24.055 4.74 32.43c1.217 3.43 6.511 14.77 6.511 14.77l-6.409-39.632s15.855 15.506 20.551 21.198c3.075 3.72 8.132 11.988 11.064 15.82 2.627 3.445 9.486 9.306 11.103 13.326 2.927 7.27-.53 23.917 2.192 31.259.328.892.85 1.967 1.506 3.158-9.817-10.212-26.932-27.004-37.122-36.831z"/>
  <path d="M397.64 313.764c-51.23-62.315-108.77-120.118-172.132-169.785-31.688-24.776-65.026-47.436-100.059-66.974-34.977-19.247-71.906-36.532-110.204-45.77 38 10.273 74.052 28.848 108.331 48.925 40.135 23.813 71.274 48.584 96.875 69.733 57.461 47.567 109.987 101.103 156.5 159.417 3.315 4.15 20.688 4.454 20.688 4.454z"/>
 </g>
</svg>