<?xml version="1.0" encoding="UTF-8"?>
<svg width="1900px" height="1000px" viewBox="0 0 1900 1000" version="1.1" xmlns="http://www.w3.org/2000/svg" xmlns:xlink="http://www.w3.org/1999/xlink">
    <!-- Generator: Sketch 47.1 (45422) - http://www.bohemiancoding.com/sketch -->
    <title>Group 18</title>
    <desc>Created with Sketch.</desc>
    <defs>
        <linearGradient x1="14.0526043%" y1="47.248848%" x2="91.0024572%" y2="45.8989037%" id="linearGradient-1">
            <stop stop-color="#3762C6" offset="0%"></stop>
            <stop stop-color="#37A6DB" offset="100%"></stop>
        </linearGradient>
        <rect id="path-2" x="0" y="0" width="1900" height="1000"></rect>
    </defs>
    <g id="Page-1" stroke="none" stroke-width="1" fill="none" fill-rule="evenodd">
        <g id="Страница-Олимпиады_2_Без-Летово_1280">
            <g id="Group-18">
                <mask id="mask-3" fill="white">
                    <use xlink:href="#path-2"></use>
                </mask>
                <use id="Mask" fill="url(#linearGradient-1)" xlink:href="#path-2"></use>
                <g id="Group-28" mask="url(#mask-3)">
                    <g transform="translate(102.000000, -73.000000)" id="Rectangle-7">
                        <rect fill="#2570CF" opacity="0.231431159" transform="translate(1245.000000, 752.500000) rotate(-35.000000) translate(-1245.000000, -752.500000) " x="867" y="682" width="756" height="141" rx="70.5"></rect>
                        <rect fill="#2570CF" opacity="0.231431159" transform="translate(1133.000000, 353.500000) rotate(-35.000000) translate(-1133.000000, -353.500000) " x="618" y="283" width="1030" height="141" rx="70.5"></rect>
                        <rect fill="#38ABE1" opacity="0.231431159" transform="translate(491.000000, 399.500000) rotate(-35.000000) translate(-491.000000, -399.500000) " x="113" y="329" width="756" height="141" rx="70.5"></rect>
                        <rect fill="#FFFFFF" opacity="0.344202899" transform="translate(1478.000000, 289.000000) rotate(-35.000000) translate(-1478.000000, -289.000000) " x="1403" y="279" width="150" height="20" rx="10"></rect>
                        <rect fill="#002A7D" opacity="0.344202899" transform="translate(221.000000, 339.500000) rotate(-35.000000) translate(-221.000000, -339.500000) " x="30" y="337" width="382" height="5" rx="2.5"></rect>
                        <rect fill="#02308C" opacity="0.344202899" transform="translate(839.500000, 805.500000) rotate(-35.000000) translate(-839.500000, -805.500000) " x="693" y="803" width="293" height="5" rx="2.5"></rect>
                        <path d="M-17,845 L210,845 L210,845 C211.104569,845 212,845.895431 212,847 L212,847 L212,847 C212,848.104569 211.104569,849 210,849 L93.8199416,849 L-17,849 L-17,849 C-18.1045695,849 -19,848.104569 -19,847 L-19,847 L-19,847 C-19,845.895431 -18.1045695,845 -17,845 Z" fill="#E1E1E1" opacity="0.344202899" transform="translate(96.500000, 847.000000) rotate(-35.000000) translate(-96.500000, -847.000000) "></path>
                    </g>
                </g>
            </g>
        </g>
    </g>
</svg>